:version 1.10
:name ASF
:units
  mass 1
  length 1
  angle deg
:documentation
  ASF file generated by Kaydara
:root
  axis xyz
  order  tx ty tz rx ry rz
  position 0 0 0
  orientation 0 0 0
:bonedata
  begin
    id 1
    name lfemurDummy
    direction 0.61522 -0.761478 0.204097
    length 5.68318
    axis 0 -0 0 xyz
  end
  begin
    id 2
    name lfemur
    direction 0.34202 -0.939693 -5.84747e-008
    length 16.9147
    axis 0 -0 20 xyz
    dof rx ry rz
    limits( -inf , inf )
( -inf , inf )
( -inf , inf )

  end
  begin
    id 3
    name ltibia
    direction 0.34202 -0.939693 1.20839e-009
    length 18.0532
    axis 0 -0 20 xyz
    dof rz ry rx
    limits( -inf , inf )
( -inf , inf )
( -inf , inf )

  end
  begin
    id 4
    name lfoot
    direction 0.0841971 -0.23133 0.969225
    length 5.23822
    axis -90 7.62852e-016 20 xyz
    dof ry rx rz
    limits( -inf , inf )
( -inf , inf )
( -inf , inf )

  end
  begin
    id 5
    name ltoes
    direction 0 0 0
    length 0
    axis 0 0 0 xyz
    dof rz ry rx
    limits( -inf , inf )
( -inf , inf )
( -inf , inf )

  end
  begin
    id 6
    name rfemurDummy
    direction -0.625247 -0.75382 0.202044
    length 5.74091
    axis 0 -0 0 xyz
  end
  begin
    id 7
    name rfemur
    direction -0.34202 -0.939693 -1.47013e-008
    length 16.4922
    axis 0 -0 -20 xyz
    dof rx ry rz
    limits( -inf , inf )
( -inf , inf )
( -inf , inf )

  end
  begin
    id 8
    name rtibia
    direction -0.34202 -0.939693 -7.74345e-010
    length 18.2421
    axis 0 -0 -20 xyz
    dof rz ry rx
    limits( -inf , inf )
( -inf , inf )
( -inf , inf )

  end
  begin
    id 9
    name rfoot
    direction -0.124331 -0.341598 0.931586
    length 5.45787
    axis -90 -7.62852e-016 -20 xyz
    dof ry rx rz
    limits( -inf , inf )
( -inf , inf )
( -inf , inf )

  end
  begin
    id 10
    name rtoes
    direction 0 0 0
    length 0
    axis 0 0 0 xyz
    dof rz ry rx
    limits( -inf , inf )
( -inf , inf )
( -inf , inf )

  end
  begin
    id 11
    name lowerbackDummy
    direction 0 0 0
    length 0
    axis 0 -0 0 xyz
  end
  begin
    id 12
    name lowerback
    direction -0.0218484 0.994884 -0.0986304
    length 4.45607
    axis 0 -0 0 xyz
    dof rx ry rz
    limits( -inf , inf )
( -inf , inf )
( -inf , inf )

  end
  begin
    id 13
    name upperback
    direction -0.00973057 0.999717 -0.0217111
    length 4.47449
    axis 0 -0 0 xyz
    dof rx ry rz
    limits( -inf , inf )
( -inf , inf )
( -inf , inf )

  end
  begin
    id 14
    name thorax
    direction -0.000928171 0.999699 0.0245198
    length 4.50973
    axis 0 -0 0 xyz
    dof rx ry rz
    limits( -inf , inf )
( -inf , inf )
( -inf , inf )

  end
  begin
    id 15
    name rclavicle
    direction -0.9009 0.425937 -0.0834055
    length 7.28587
    axis 0 -0 0 xyz
    dof rx ry rz
    limits( -inf , inf )
( -inf , inf )
( -inf , inf )

  end
  begin
    id 16
    name rhumerus
    direction -1 -2.23604e-007 -1.42637e-007
    length 13.5704
    axis 180 30 90 xyz
    dof rx ry rz
    limits( -inf , inf )
( -inf , inf )
( -inf , inf )

  end
  begin
    id 17
    name rradius
    direction -1 5.68281e-008 -4.4952e-007
    length 8.06782
    axis 180 30 90 xyz
    dof rz ry rx
    limits( -inf , inf )
( -inf , inf )
( -inf , inf )

  end
  begin
    id 18
    name rwrist
    direction -1 1.51393e-007 1.38143e-007
    length 4.03391
    axis -90 -90 0 xyz
    dof rz rx ry
    limits( -inf , inf )
( -inf , inf )
( -inf , inf )

  end
  begin
    id 19
    name rthumb
    direction 0 0 0
    length 0
    axis 0 0 0 xyz
    dof ry rx rz
    limits( -inf , inf )
( -inf , inf )
( -inf , inf )

  end
  begin
    id 20
    name rhand
    direction -1 -3.34077e-007 -5.59631e-007
    length 1.29744
    axis -90 -90 0 xyz
    dof ry rx rz
    limits( -inf , inf )
( -inf , inf )
( -inf , inf )

  end
  begin
    id 21
    name rfingers
    direction 0 0 0
    length 0
    axis 0 0 0 xyz
    dof rz ry rx
    limits( -inf , inf )
( -inf , inf )
( -inf , inf )

  end
  begin
    id 22
    name lclavicle
    direction 0.940017 0.332249 -0.0773232
    length 8.29589
    axis 0 -0 0 xyz
    dof rx ry rz
    limits( -inf , inf )
( -inf , inf )
( -inf , inf )

  end
  begin
    id 23
    name lhumerus
    direction 1 7.41158e-008 -1.44768e-008
    length 12.0042
    axis 180 -30 -90 xyz
    dof rx ry rz
    limits( -inf , inf )
( -inf , inf )
( -inf , inf )

  end
  begin
    id 24
    name lradius
    direction 1 -1.32972e-007 3.10821e-007
    length 8.1902
    axis 180 -30 -90 xyz
    dof rz ry rx
    limits( -inf , inf )
( -inf , inf )
( -inf , inf )

  end
  begin
    id 25
    name lwrist
    direction 1 3.08957e-007 4.01394e-007
    length 4.09509
    axis -90 90 0 xyz
    dof rz rx ry
    limits( -inf , inf )
( -inf , inf )
( -inf , inf )

  end
  begin
    id 26
    name lthumb
    direction 0 0 0
    length 0
    axis 0 0 0 xyz
    dof ry rx rz
    limits( -inf , inf )
( -inf , inf )
( -inf , inf )

  end
  begin
    id 27
    name lhand
    direction 1 -1.64125e-007 -6.99514e-007
    length 1.37229
    axis -90 90 0 xyz
    dof ry rx rz
    limits( -inf , inf )
( -inf , inf )
( -inf , inf )

  end
  begin
    id 28
    name lfingers
    direction 0 0 0
    length 0
    axis 0 0 0 xyz
    dof rz ry rx
    limits( -inf , inf )
( -inf , inf )
( -inf , inf )

  end
  begin
    id 29
    name lowerneck
    direction -0.030798 0.998024 0.0547665
    length 3.93918
    axis 0 -0 0 xyz
    dof rx ry rz
    limits( -inf , inf )
( -inf , inf )
( -inf , inf )

  end
  begin
    id 30
    name upperneck
    direction 0.0531588 0.996611 -0.0627736
    length 3.95491
    axis 0 -0 0 xyz
    dof rx ry rz
    limits( -inf , inf )
( -inf , inf )
( -inf , inf )

  end
  begin
    id 31
    name head
    direction 0 0 0
    length 0
    axis 0 0 0 xyz
    dof rx ry rz
    limits( -inf , inf )
( -inf , inf )
( -inf , inf )

  end
:hierarchy
  begin
    root lfemurDummy rfemurDummy lowerbackDummy
    lfemurDummy lfemur
    lfemur ltibia
    ltibia lfoot
    lfoot ltoes
    rfemurDummy rfemur
    rfemur rtibia
    rtibia rfoot
    rfoot rtoes
    lowerbackDummy lowerback
    lowerback upperback
    upperback thorax
    thorax rclavicle lclavicle lowerneck
    rclavicle rhumerus
    rhumerus rradius
    rradius rwrist
    rwrist rthumb rhand
    rhand rfingers
    lclavicle lhumerus
    lhumerus lradius
    lradius lwrist
    lwrist lthumb lhand
    lhand lfingers
    lowerneck upperneck
    upperneck head
  end

:SAMPLES-PER-SECOND 30
:FULLY-SPECIFIED
:DEGREES
65
root  13.09320044 40.00866807 -10.68604462 -1.05309999 -54.83670044 3.815109968
lowerback  8.850310326 1.387789965 -2.826809883
upperback  5.192840099 1.488899946 -2.894750118
thorax  0.427053988 0.6701930165 -1.52583003
lowerneck  4.912950039 7.057499886 -9.579990387
upperneck  38.87530136 9.469189644 -0.9943540096
head  11.77810001 2.322979927 1.862100005
lclavicle  0 -9.442270133e-015 7.951389973e-016
lhumerus  13.3355999 6.247879982 67.62049866
lradius  2.644451903e-031 -2.340025249e-031 138.4949951
lwrist  -7.062250077e-031 1.765562519e-031 21.9633007
lhand  -1.496451383e-031 -27.76390076 20.11240005
lfingers  90 7.125020027 -90
lthumb  89.89689403 5.08795885 91.16245106
rclavicle  0 -9.442270133e-015 7.951389973e-016
rhumerus  19.60810089 6.32986021 -75.14150238
rradius  -2.626980854e-031 2.359621926e-031 138.0690002
rwrist  7.062250077e-031 3.089734409e-031 -30.87750053
rhand  -7.920061211e-032 -33.2840004 9.303460121
rfingers  -90 -7.125020027 -90
rthumb  -92.93752616 -24.25625642 -97.11982154
rfemur  -17.31469917 12.90779972 2.650969982
rtibia  -0 0 47.38439941
rfoot  -0 -15.14789963 -20.69549942
rtoes  5.373923086 19.29304026 -105.8922705
lfemur  -32.65779877 5.993120193 0.2749269903
ltibia  -0 0 62.71509933
lfoot  4.427356286e-032 -4.467209816 -4.92234993
ltoes  -4.250644065 -19.5611806 -102.515957
66
root  13.26964371 40.06955605 -10.5521112 -1.052279949 -55.38470078 4.125699997
lowerback  8.911319733 1.595960021 -3.187350035
upperback  5.229430199 1.724110007 -3.281330109
thorax  0.4366410077 0.7811229825 -1.745609999
lowerneck  5.189909935 7.019070148 -9.014849663
upperneck  38.40589905 9.470669746 -1.466580033
head  11.58010006 2.385750055 1.572080016
lclavicle  0 -9.442270133e-015 7.951389973e-016
lhumerus  14.59490013 6.582159996 67.12830353
lradius  2.640241124e-031 -2.344775222e-031 138.3919983
lwrist  -1.412450015e-030 8.827812596e-032 22.47380066
lhand  -1.496451383e-031 -27.76390076 20.11240005
lfingers  90 7.125020027 -90
lthumb  89.89689403 5.08795885 91.16245106
rclavicle  0 -9.442270133e-015 7.951389973e-016
rhumerus  20.49830055 5.146999836 -75.271698
rradius  -2.635611931e-031 2.349977402e-031 138.279007
rwrist  7.062250077e-031 2.206953149e-031 -31.77479935
rhand  -7.920061211e-032 -33.2840004 9.303460121
rfingers  -90 -7.125020027 -90
rthumb  -92.93752616 -24.25625642 -97.11982154
rfemur  -18.21039963 11.94120026 2.494189978
rtibia  -0 0 48.1637001
rfoot  -0 -14.99950027 -23.19560051
rtoes  5.373923086 19.29304026 -105.8922705
lfemur  -32.73040009 5.785560131 0.6503869891
ltibia  -0 0 61.9552002
lfoot  4.42504387e-032 -4.065979958 -3.160890102
ltoes  -4.250644065 -19.5611806 -102.515957
67
root  13.43877747 40.10066536 -10.41431127 -1.237120032 -55.92950058 4.556479931
lowerback  9.025939941 1.496230006 -4.00744009
upperback  5.35311985 1.520210028 -3.306619883
thorax  0.4832809865 0.656201005 -1.297950029
lowerneck  4.634669781 7.375830173 -10.12779999
upperneck  38.24020004 10.03240013 -1.256399989
head  11.53409958 2.5104599 1.885540009
lclavicle  0 -9.442270133e-015 7.951389973e-016
lhumerus  15.48390007 7.977920055 66.82520294
lradius  2.641264349e-031 -2.343622554e-031 138.4170074
lwrist  -7.062250077e-031 1.765562519e-031 22.89690018
lhand  -1.496451383e-031 -27.76390076 20.11240005
lfingers  90 7.125020027 -90
lthumb  89.89689403 5.08795885 91.16245106
rclavicle  0 -9.442270133e-015 7.951389973e-016
rhumerus  22.01070023 5.09995985 -75.15550232
rradius  -2.64134611e-031 2.343530406e-031 138.4190063
rwrist  7.062250077e-031 2.869039094e-031 -33.03689957
rhand  -7.920061211e-032 -33.2840004 9.303460121
rfingers  -90 -7.125020027 -90
rthumb  -92.93752616 -24.25625642 -97.11982154
rfemur  -19.04089928 11.05910015 2.26135993
rtibia  -0 0 49.27590179
rfoot  -0 -16.00130081 -24.61930084
rtoes  5.373923086 19.29304026 -105.8922705
lfemur  -32.62580109 5.490320206 0.9976930022
ltibia  -0 0 61.07770157
lfoot  4.420923861e-032 -3.228729963 -1.570780039
ltoes  -4.250644065 -19.5611806 -102.515957
68
root  13.59528819 40.1011099 -10.2669776 -1.617540002 -56.49959946 5.121150017
lowerback  8.944129944 1.853569984 -4.203639984
upperback  5.527289867 1.972110033 -3.940279961
thorax  0.7259389758 0.8757190108 -1.880460024
lowerneck  4.525169849 7.163899899 -10.00839996
upperneck  37.9618988 9.581609726 -0.6676120162
head  11.40110016 2.409450054 2.057889938
lclavicle  0 -9.442270133e-015 7.951389973e-016
lhumerus  17.19339943 7.803929806 66.25939941
lradius  2.636390953e-031 -2.3491034e-031 138.2980042
lwrist  0 1.765562519e-031 23.40579987
lhand  -1.496451383e-031 -27.76390076 20.11240005
lfingers  90 7.125020027 -90
lthumb  89.89689403 5.08795885 91.16245106
rclavicle  0 -9.442270133e-015 7.951389973e-016
rhumerus  22.81749916 3.763170004 -75.43689728
rradius  -2.65345844e-031 2.329807362e-031 138.7160034
rwrist  7.062250077e-031 8.827812596e-032 -34.08349991
rhand  -7.920061211e-032 -33.2840004 9.303460121
rfingers  -90 -7.125020027 -90
rthumb  -92.93752616 -24.25625642 -97.11982154
rfemur  -19.82130051 10.31019974 1.953909993
rtibia  -0 0 50.69329834
rfoot  -0 -16.8234005 -24.70739937
rtoes  5.373923086 19.29304026 -105.8922705
lfemur  -32.27970123 5.16779995 1.299219966
ltibia  -0 0 60.07300186
lfoot  4.417167627e-032 -2.201859951 -0.4654450119
ltoes  -4.250644065 -19.5611806 -102.515957
69
root  13.74559928 40.07022287 -10.12200033 -2.02534008 -56.97489929 5.699389935
lowerback  8.828989983 2.029040098 -4.723629951
upperback  5.649409771 2.167390108 -4.307670116
thorax  0.916294992 0.9571620226 -1.983880043
lowerneck  4.780690193 7.13421011 -9.836409569
upperneck  36.9654007 9.553919792 -0.9612089992
head  10.9630003 2.467080116 1.889039993
lclavicle  0 -9.442270133e-015 7.951389973e-016
lhumerus  18.31299973 8.124210358 65.91880035
lradius  2.631013256e-031 -2.355124898e-031 138.1670074
lwrist  -7.062250077e-031 -1.765562519e-031 23.44630051
lhand  -1.496451383e-031 -27.76390076 20.11240005
lfingers  90 7.125020027 -90
lthumb  89.89689403 5.08795885 91.16245106
rclavicle  0 -9.442270133e-015 7.951389973e-016
rhumerus  23.77300072 3.220190048 -75.49919891
rradius  -2.662303798e-031 2.319694489e-031 138.9340057
rwrist  1.412450015e-030 -4.413906298e-032 -34.89080048
rhand  -7.920061211e-032 -33.2840004 9.303460121
rfingers  -90 -7.125020027 -90
rthumb  -92.93752616 -24.25625642 -97.11982154
rfemur  -20.61969948 9.583040237 1.655490041
rtibia  -0 0 52.36940002
rfoot  -0 -16.9803009 -23.76399994
rtoes  5.373923086 19.29304026 -105.8922705
lfemur  -31.87170029 4.716179848 1.625620008
ltibia  -0 0 58.92490005
lfoot  4.664669459e-032 -1.032070041 0.01226999983
ltoes  -4.250644065 -19.5611806 -102.515957
70
root  13.89906726 40.01466646 -9.969244229 -2.280169964 -57.35739899 6.044350147
lowerback  8.912329674 1.83257997 -5.438000202
upperback  5.593329906 1.84465003 -4.173399925
thorax  0.7882570028 0.7770640254 -1.423589945
lowerneck  4.598090172 7.588779926 -11.08430004
upperneck  36.40259933 10.2446003 -0.986135006
head  10.69559956 2.652590036 2.112689972
lclavicle  0 -9.442270133e-015 7.951389973e-016
lhumerus  18.3090992 9.399339676 66.01439667
lradius  2.630026427e-031 -2.356226863e-031 138.1430054
lwrist  -7.062250077e-031 -0 23.23579979
lhand  -1.496451383e-031 -27.76390076 20.11240005
lfingers  90 7.125020027 -90
lthumb  89.89689403 5.08795885 91.16245106
rclavicle  0 -9.442270133e-015 7.951389973e-016
rhumerus  24.91939926 3.892129898 -75.20700073
rradius  -2.668892057e-031 2.312111421e-031 139.0970001
rwrist  0 5.738078187e-031 -35.53079987
rhand  -7.920061211e-032 -33.2840004 9.303460121
rfingers  -90 -7.125020027 -90
rthumb  -92.93752616 -24.25625642 -97.11982154
rfemur  -21.32799911 8.903909683 1.524170041
rtibia  -0 0 54.20629883
rfoot  -0 -16.99250031 -22.21899986
rtoes  5.373923086 19.29304026 -105.8922705
lfemur  -31.43910027 4.021989822 2.092999935
ltibia  -0 0 57.68669891
lfoot  4.620820528e-032 0.132585004 0.07867670059
ltoes  -4.250644065 -19.5611806 -102.515957
71
root  14.0407337 39.93733323 -9.797688732 -2.844749928 -57.6529007 6.682489872
lowerback  8.968990326 2.200979948 -5.314899921
upperback  5.54513979 2.316709995 -4.798639774
thorax  0.7329959869 1.02184999 -2.185750008
lowerneck  4.690939903 7.352059841 -10.78829956
upperneck  36.17710114 9.771630287 -0.5078070164
head  10.57400036 2.548799992 2.205140114
lclavicle  0 -9.442270133e-015 7.951389973e-016
lhumerus  19.30610085 8.487970352 66.01319885
lradius  2.626445385e-031 -2.36021793e-031 138.0559998
lwrist  -7.062250077e-031 -8.827812596e-032 23.37120056
lhand  -1.496451383e-031 -27.76390076 20.11240005
lfingers  90 7.125020027 -90
lthumb  89.89689403 5.08795885 91.16245106
rclavicle  0 -9.442270133e-015 7.951389973e-016
rhumerus  25.0951004 2.881750107 -75.40309906
rradius  -2.681563253e-031 2.297403438e-031 139.4120026
rwrist  7.062250077e-031 1.765562519e-031 -35.41009903
rhand  -7.920061211e-032 -33.2840004 9.303460121
rfingers  -90 -7.125020027 -90
rthumb  -92.93752616 -24.25625642 -97.11982154
rfemur  -21.82369995 8.317359924 1.209820032
rtibia  -0 0 56.09550095
rfoot  -0 -17.42760086 -20.4557991
rtoes  5.373923086 19.29304026 -105.8922705
lfemur  -30.85180092 3.0792799 2.329600096
ltibia  -0 0 56.34690094
lfoot  4.690544372e-032 1.037469983 -0.1434649974
ltoes  -4.250644065 -19.5611806 -102.515957
